<svg width="346" height="336" viewBox="0 0 346 336" fill="none" xmlns="http://www.w3.org/2000/svg">
<circle cx="170.5" cy="169.5" r="37.5" fill="#3772FF"/>
<path fill-rule="evenodd" clip-rule="evenodd" d="M206.581 21.8718C187.18 2.22093 155.523 2.01823 135.872 21.419C116.221 40.8198 116.018 72.4774 135.419 92.1283L140.297 97.0692L162.122 152.661C165.112 160.276 175.888 160.276 178.878 152.661L200.146 98.4868L206.128 92.581C225.779 73.1802 225.982 41.5226 206.581 21.8718Z" fill="#3772FF"/>
<path fill-rule="evenodd" clip-rule="evenodd" d="M285.025 275.061C311.524 267.293 326.709 239.515 318.942 213.015C311.175 186.516 283.396 171.331 256.897 179.098L250.234 181.051L190.939 173.916C182.817 172.939 177.708 182.427 182.996 188.669L220.615 233.077L222.979 241.143C230.747 267.643 258.525 282.828 285.025 275.061Z" fill="#3772FF"/>
<path fill-rule="evenodd" clip-rule="evenodd" d="M59.663 272.061C33.1637 264.293 17.9784 236.515 25.7458 210.015C33.5131 183.516 61.2918 168.331 87.7911 176.098L94.454 178.051L153.749 170.916C161.871 169.939 166.979 179.427 161.692 185.669L124.073 230.077L121.708 238.143C113.941 264.643 86.1623 279.828 59.663 272.061Z" fill="#3772FF"/>
<path d="M344.5 168C344.5 259.918 267.978 334.5 173.5 334.5C79.0217 334.5 2.5 259.918 2.5 168C2.5 76.0817 79.0217 1.5 173.5 1.5C267.978 1.5 344.5 76.0817 344.5 168Z" stroke="#4F4F4F" stroke-width="3"/>
<circle cx="171" cy="169" r="44.5" stroke="#4F4F4F" stroke-width="3"/>
<circle cx="171" cy="168" r="107.5" stroke="#4F4F4F" stroke-width="3"/>
<line x1="168.5" y1="124" x2="168.5" stroke="#4F4F4F" stroke-width="5"/>
<line x1="216.98" y1="168.5" x2="345.979" y2="167.443" stroke="#4F4F4F" stroke-width="5"/>
<line x1="173.5" y1="215" x2="173.5" y2="336" stroke="#4F4F4F" stroke-width="5"/>
<line x1="125.96" y1="175.5" x2="0.960005" y2="173.5" stroke="#4F4F4F" stroke-width="5"/>
<line x1="204.222" y1="138.242" x2="293.222" y2="48.2421" stroke="#4F4F4F" stroke-width="5"/>
<line x1="138.726" y1="200.808" x2="50.7262" y2="284.808" stroke="#4F4F4F" stroke-width="5"/>
<line x1="135.232" y1="139.768" x2="48.2322" y2="52.7678" stroke="#4F4F4F" stroke-width="5"/>
<line x1="205.768" y1="198.232" x2="294.768" y2="287.232" stroke="#4F4F4F" stroke-width="5"/>
</svg>
