<svg width="1315" height="974" viewBox="0 0 1315 974" fill="none" xmlns="http://www.w3.org/2000/svg">
<path d="M973.015 739.83C1102.84 654.931 1146.27 429.677 1152.75 327.304C1151.08 333.351 1137.12 348.815 1133.65 351.468C1129.82 354.396 1108.28 366.625 1104.95 367.543C1099.34 369.091 1087.77 375.532 1082.23 377.553L1057.67 386.621L1016.89 396.766L956.586 406.432C932.298 412.412 876.796 425.752 849.099 431.273C821.402 436.794 780.602 465.222 763.663 478.746C743.312 497.835 662.488 574.271 662.105 742.721C662.658 737.909 812.045 845.094 973.015 739.83Z" fill="#066A38"/>
<path d="M1072.51 444.811C1056.58 525.287 1013.12 646.191 919.97 709.33C799.66 790.88 663.974 740.457 662.446 742.291C662.442 742.309 662.438 742.327 662.435 742.344C662.43 742.323 662.433 742.306 662.446 742.291C678.44 665.113 759.811 577.264 777.212 548.458C794.617 519.645 830.776 506.659 843.036 499.071C855.297 491.483 920.644 475.178 931.255 473.307L992.5 461.807C1021.5 457.147 1037.83 454.46 1072.51 444.811Z" fill="#066A38"/>
<path d="M1072.51 444.811C1056.58 525.287 1013.12 646.191 919.97 709.33C799.66 790.88 663.974 740.457 662.446 742.291C662.442 742.309 662.438 742.327 662.435 742.344C662.43 742.323 662.433 742.306 662.446 742.291C678.44 665.113 759.811 577.264 777.212 548.458C794.617 519.645 830.776 506.659 843.036 499.071C855.297 491.483 920.644 475.178 931.255 473.307L992.5 461.807C1021.5 457.147 1037.83 454.46 1072.51 444.811Z" fill="white"/>
<path d="M934.97 593.12C1009.4 457.022 941.446 237.914 898.874 144.588C900.253 150.708 895.231 170.932 893.427 174.905C891.434 179.292 878.208 200.236 875.704 202.617C871.483 206.63 864.318 217.768 860.39 222.161L843.015 241.74L811.838 269.922L763.223 306.89C744.627 323.62 701.98 361.562 680.162 379.495C658.344 397.427 635.777 441.74 627.221 461.654C618.28 488.085 583.066 593.608 662.185 742.322C660.403 737.818 842.684 761.866 934.97 593.12Z" fill="#089247"/>
<path d="M883.548 286.049C907.455 364.527 926.163 491.636 873.81 591.247C806.192 719.903 662.765 739.444 662.282 741.782C662.287 741.8 662.293 741.817 662.298 741.835C662.284 741.818 662.279 741.801 662.282 741.782C639.981 666.185 670.294 550.341 672.05 516.733C673.807 483.117 699.565 454.611 706.796 442.136C714.028 429.662 763.958 384.462 772.432 377.807L821.011 338.778C844.38 320.992 857.52 310.916 883.548 286.049Z" fill="#089247"/>
<path d="M883.548 286.049C907.455 364.527 926.163 491.636 873.81 591.247C806.192 719.903 662.765 739.444 662.282 741.782C662.287 741.8 662.293 741.817 662.298 741.835C662.284 741.818 662.279 741.801 662.282 741.782C639.981 666.185 670.294 550.341 672.05 516.733C673.807 483.117 699.565 454.611 706.796 442.136C714.028 429.662 763.958 384.462 772.432 377.807L821.011 338.778C844.38 320.992 857.52 310.916 883.548 286.049Z" fill="white"/>
<path d="M843.715 496.928C863.849 343.119 721.209 163.453 647.749 91.8589C651.249 97.066 653.886 117.736 653.642 122.093C653.373 126.904 648.622 151.214 647.149 154.34C644.667 159.608 642.018 172.585 639.946 178.101L630.834 202.641L611.968 240.196L580.027 292.251C568.746 314.577 542.72 365.381 528.87 389.993C515.02 414.606 510.019 464.082 509.25 485.743C510.479 513.618 515.839 624.732 643.413 734.734C640.122 731.181 818.752 687.634 843.715 496.928Z" fill="#3BB24A"/>
<path d="M684.655 229.279C735.341 293.786 798.78 405.51 786.023 517.315C769.547 661.721 642.912 731.842 643.309 734.196C643.32 734.211 643.331 734.225 643.342 734.24C643.323 734.229 643.312 734.215 643.309 734.196C595.161 671.793 581.497 552.831 570.972 520.865C560.445 488.892 574.141 452.996 576.368 438.751C578.596 424.505 608.784 364.299 614.276 355.029L645.438 301.065C660.786 276.028 669.39 261.879 684.655 229.279Z" fill="#3BB24A"/>
<path d="M684.655 229.279C735.341 293.786 798.78 405.51 786.023 517.315C769.547 661.721 642.912 731.842 643.309 734.196C643.32 734.211 643.331 734.225 643.342 734.24C643.323 734.229 643.312 734.215 643.309 734.196C595.161 671.793 581.497 552.831 570.972 520.865C560.445 488.892 574.141 452.996 576.368 438.751C578.596 424.505 608.784 364.299 614.276 355.029L645.438 301.065C660.786 276.028 669.39 261.879 684.655 229.279Z" fill="white"/>
<path d="M707.611 430.244C652.814 285.124 442.292 193.983 343.748 165.504C349.29 168.445 361.365 185.427 363.205 189.384C365.236 193.753 372.514 217.43 372.69 220.88C372.986 226.697 376.772 239.389 377.546 245.23L381.087 271.167L382.166 313.18L378.556 374.147C379.139 399.154 380.154 456.227 379.551 484.462C378.949 512.698 397.876 558.683 407.415 578.146C421.648 602.145 478.785 697.593 643.162 734.414C638.584 732.833 775.552 610.177 707.611 430.244Z" fill="#8DC442"/>
<path d="M441.109 269.268C516.23 302.24 624.867 370.831 666.356 475.434C719.943 610.538 641.356 732.1 642.816 733.989C642.833 733.997 642.849 734.004 642.866 734.011C642.844 734.011 642.828 734.004 642.816 733.989C570.926 701.675 502.765 603.223 478.406 580.002C454.042 556.775 449.187 518.663 444.431 505.051C439.676 491.439 437.896 424.112 438.366 413.348L440.39 351.065C442.113 321.748 443.026 305.215 441.109 269.268Z" fill="#8DC442"/>
<path d="M441.109 269.268C516.23 302.24 624.867 370.831 666.356 475.434C719.943 610.538 641.356 732.1 642.816 733.989C642.833 733.997 642.849 734.004 642.866 734.011C642.844 734.011 642.828 734.004 642.816 733.989C570.926 701.675 502.765 603.223 478.406 580.002C454.042 556.775 449.187 518.663 444.431 505.051C439.676 491.439 437.896 424.112 438.366 413.348L440.39 351.065C442.113 321.748 443.026 305.215 441.109 269.268Z" fill="white"/>
<path d="M579.448 430.435C470.486 320.027 241.092 322.136 139.468 336.087C145.726 336.526 163.653 347.149 166.94 350.019C170.57 353.188 186.828 371.876 188.388 374.958C191.019 380.154 199.628 390.219 202.706 395.244L216.465 417.513L234.497 455.475L255.932 512.664C266.611 535.284 290.694 587.037 301.599 613.088C312.503 639.14 348.46 673.491 365.075 687.411C387.82 703.571 478.769 767.629 643.948 734.594C639.122 735.006 714.548 567.328 579.448 430.435Z" fill="#D6DE28"/>
<path d="M270.555 391.426C352.593 391.085 479.715 409.701 560.075 488.475C663.867 590.219 641.359 733.211 643.459 734.345C643.477 734.345 643.496 734.345 643.514 734.346C643.494 734.354 643.476 734.354 643.459 734.345C564.642 733.977 462.399 671.646 430.714 660.304C399.021 648.96 379.121 616.095 369.252 605.583C359.383 595.071 330.441 534.257 326.503 524.228L303.084 466.48C292.765 438.986 286.891 423.503 270.555 391.426Z" fill="#D6DE28"/>
<path d="M270.555 391.426C352.593 391.085 479.715 409.701 560.075 488.475C663.867 590.219 641.359 733.211 643.459 734.345C643.477 734.345 643.496 734.345 643.514 734.346C643.494 734.354 643.476 734.354 643.459 734.345C564.642 733.977 462.399 671.646 430.714 660.304C399.021 648.96 379.121 616.095 369.252 605.583C359.383 595.071 330.441 534.257 326.503 524.228L303.084 466.48C292.765 438.986 286.891 423.503 270.555 391.426Z" fill="white"/>
<path d="M443.198 496.822C295.041 450.865 93.7648 560.927 10.7367 621.164C16.4625 618.599 37.2803 619.51 41.5324 620.49C46.2275 621.573 69.3783 630.382 72.2083 632.364C76.9788 635.705 89.3174 640.519 94.4017 643.497L117.038 656.644L150.844 681.612L196.72 721.928C216.806 736.837 262.453 771.111 284.357 788.939C306.26 806.766 354.168 820.096 375.385 824.532C403.064 828.053 513.475 841.638 643.541 734.595C639.48 737.235 626.896 553.805 443.198 496.822Z" fill="#F6EC32"/>
<path d="M152.427 608.128C224.604 569.13 345.478 525.583 453.493 557.139C593.005 597.895 640.606 734.597 642.993 734.606C643.009 734.598 643.025 734.589 643.041 734.581C643.028 734.598 643.012 734.607 642.993 734.606C573.32 771.459 453.766 764.725 420.477 769.67C387.18 774.616 354.132 755.023 340.471 750.409C326.81 745.795 272.605 705.823 264.402 698.837L216.512 658.964C194.445 639.588 181.963 628.707 152.427 608.128Z" fill="#F6EC32"/>
<path d="M152.427 608.128C224.604 569.13 345.478 525.583 453.493 557.139C593.005 597.895 640.606 734.597 642.993 734.606C643.009 734.598 643.025 734.589 643.041 734.581C643.028 734.598 643.012 734.607 642.993 734.606C573.32 771.459 453.766 764.725 420.477 769.67C387.18 774.616 354.132 755.023 340.471 750.409C326.81 745.795 272.605 705.823 264.402 698.837L216.512 658.964C194.445 639.588 181.963 628.707 152.427 608.128Z" fill="white"/>
</svg>
